<svg id="Capa_1" enable-background="new 0 0 512.002 512.002" height="512" viewBox="0 0 512.002 512.002" width="512" xmlns="http://www.w3.org/2000/svg" xmlns:xlink="http://www.w3.org/1999/xlink"><linearGradient id="SVGID_1_" gradientUnits="userSpaceOnUse" x1="274.417" x2="274.417" y1="467" y2="15.002"><stop offset="0" stop-color="#5558ff"/><stop offset="1" stop-color="#00c0ff"/></linearGradient><linearGradient id="SVGID_2_" gradientUnits="userSpaceOnUse" x1="256.001" x2="256.001" y1="497" y2="136.95"><stop offset="0" stop-color="#addcff"/><stop offset=".5028" stop-color="#eaf6ff"/><stop offset="1" stop-color="#eaf6ff"/></linearGradient><g><g><g><path d="m510.912 407c-7.06-48.73-48.04-86.77-98.39-89.8-.063-.067-.122-.133-.185-.2l-66.335-15 42.881-15c-6.357-10.09-11.248-20.117-15.015-30l-27.866-15 19.41-15c-1.974-10.309-3.044-20.345-3.646-30l-15.765-15 12.132-15c-5.172-21.322-16.112-41.193-31.522-56.61-5.86-5.85-15.36-5.85-21.22 0l-30 30c-27.23 27.24-71.55 27.24-98.78 0-27.79-27.78-28.24-72.55-1-99.78 2.93-2.93 4.39-6.77 4.39-10.61s-1.46-7.68-4.39-10.61c-5.86-5.85-15.36-5.85-21.22 0l-117.559 117.56 17.083 49.05 181.917 206.31c25.56 28.4 92.14 74.69 130.35 74.69h110.82l35-30v-15c0-5.09-.37-10.1-1.09-15z" fill="url(#SVGID_1_)"/></g></g><g><g><path d="m316.002 257h57.866c-3.882-10.185-6.583-20.216-8.456-30h-49.41c-8.284 0-15 6.716-15 15s6.716 15 15 15zm0 60h96.335c-9.474-10.006-17.174-20.032-23.454-30h-72.881c-8.284 0-15 6.716-15 15s6.716 15 15 15zm0-120h45.765c-.147-2.36-.267-4.698-.365-7.01-.329-7.757-1.442-15.463-3.268-22.99h-42.132c-8.284 0-15 6.716-15 15s6.716 15 15 15zm50.18 240c-38.21 0-74.79-16.29-100.35-44.69l-229-255.36-32.44 32.44c-5.63 5.64-5.88 14.69-.56 20.62l217.39 242.44c36.92 41.02 89.75 64.55 144.95 64.55h130.83c8.28 0 15-6.72 15-15v-45z" fill="url(#SVGID_2_)"/></g></g></g></svg>