<svg id="Capa_1" enable-background="new 0 0 512 512" height="512" viewBox="0 0 512 512" width="512" xmlns="http://www.w3.org/2000/svg"><g><g><path d="m407.02 98.564c-.636 0-1.282-.08-1.927-.249l-33.677-8.787c-20.799-5.527-35.82-22.883-38.3-44.226-1.993-17.148-16.514-30.079-33.778-30.079h-86.676c-17.263 0-31.784 12.931-33.777 30.079-2.481 21.343-17.502 38.699-38.269 44.218-.066.018-.134.035-.201.051l-28.975 6.86c-4.083.966-8.191-1.562-9.16-5.653s1.562-8.192 5.653-9.161l28.869-6.835c14.632-3.93 25.211-16.18 26.96-31.236 2.887-24.826 23.909-43.546 48.9-43.546h86.676c24.992 0 46.014 18.72 48.9 43.545 1.753 15.089 12.374 27.361 27.055 31.262l33.644 8.778c4.067 1.061 6.504 5.219 5.443 9.286-.894 3.424-3.98 5.693-7.36 5.693z" fill="#eab14d"/></g><g><path d="m256 126.78c-4.204 0-7.611-3.408-7.611-7.612v-42.64c0-4.204 3.407-7.611 7.611-7.611s7.612 3.408 7.612 7.611v42.64c-.001 4.204-3.408 7.612-7.612 7.612z" fill="#365e7d"/></g><g><path d="m281.933 84.14h-51.866c-4.204 0-7.611-3.408-7.611-7.611s3.407-7.611 7.611-7.611h51.866c4.204 0 7.612 3.408 7.612 7.611s-3.408 7.611-7.612 7.611z" fill="#2b4d66"/></g><g><path d="m44.339 123.102c-1.947 0-3.896-.743-5.383-2.229l-18.856-18.857c-2.972-2.972-2.972-7.792 0-10.764 2.973-2.972 7.792-2.972 10.765 0l18.856 18.856c2.972 2.972 2.972 7.792 0 10.764-1.486 1.487-3.435 2.23-5.382 2.23z" fill="#2b4d66"/></g><g><path d="m463.984 126.78c-1.947 0-3.896-.743-5.382-2.229-2.973-2.972-2.973-7.791-.001-10.764l22.533-22.534c2.973-2.972 7.793-2.973 10.764 0 2.973 2.972 2.973 7.791.001 10.764l-22.533 22.534c-1.486 1.486-3.435 2.229-5.382 2.229z" fill="#2b4d66"/></g><path d="m379.904 512h-41.155c-9.211 0-16.678-7.467-16.678-16.678v-89.376h74.511v89.376c0 9.211-7.467 16.678-16.678 16.678z" fill="#f4fbff"/><path d="m322.07 495.322c0 2.499.565 4.86 1.55 6.988 27.352-9.411 52.119-24.369 72.961-43.534v-52.83h-74.511z" fill="#daf1f4"/><path d="m129.292 109.174-91.27 91.27c-2.719 2.719-7.127 2.719-9.846 0l-11.935-11.935c-16.58-16.58-16.58-43.463 0-60.043l41.073-41.073c16.58-16.58 43.463-16.58 60.043 0l11.935 11.935c2.719 2.719 2.719 7.127 0 9.846z" fill="#5766cb"/><path d="m129.292 99.328-11.935-11.935c-16.14-16.14-42.038-16.562-58.696-1.28 12.194.429 24.261 5.287 33.569 14.595l21.255 21.255c.523.523.952 1.103 1.304 1.716l14.504-14.504c2.718-2.72 2.718-7.128-.001-9.847z" fill="#3d4fc3"/><path d="m382.708 109.174 91.27 91.27c2.719 2.719 7.127 2.719 9.846 0l11.935-11.935c16.58-16.58 16.58-43.463 0-60.043l-41.073-41.073c-16.58-16.58-43.462-16.58-60.043 0l-11.935 11.935c-2.719 2.719-2.719 7.127 0 9.846z" fill="#5766cb"/><path d="m495.759 128.466-6.054-6.054c4.521 16.342.372 34.58-12.474 47.426l-16.93 16.93 13.676 13.676c2.719 2.719 7.127 2.719 9.846 0l11.935-11.935c16.581-16.581 16.581-43.463.001-60.043z" fill="#3d4fc3"/><path d="m79.925 145.975h50.119v60.324h-50.119z" fill="#f4fbff" transform="matrix(.707 -.707 .707 .707 -93.798 125.825)"/><path d="m64.49 152.368h50.119v16.665h-50.119z" fill="#daf1f4" transform="matrix(.707 -.707 .707 .707 -87.404 110.389)"/><path d="m381.955 145.975h50.119v60.324h-50.119z" fill="#f4fbff" transform="matrix(-.707 -.707 .707 -.707 570.271 588.487)"/><path d="m414.312 135.561h16.439v50.119h-16.439z" fill="#daf1f4" transform="matrix(.707 -.707 .707 .707 10.18 345.819)"/><path d="m173.252 512h-41.155c-9.211 0-16.678-7.467-16.678-16.678v-89.376h74.511v89.376c0 9.211-7.467 16.678-16.678 16.678z" fill="#f4fbff"/><path d="m115.419 458.776c20.843 19.165 45.609 34.124 72.961 43.534.985-2.128 1.55-4.49 1.55-6.988v-89.376h-74.511z" fill="#daf1f4"/><circle cx="256" cy="299.742" fill="#5766cb" r="190.722"/><path d="m256 109.02c-4.359 0-8.68.16-12.967.448 99.284 6.668 177.756 89.3 177.756 190.274s-78.472 183.607-177.756 190.274c4.286.288 8.607.448 12.967.448 105.333 0 190.722-85.389 190.722-190.722s-85.389-190.722-190.722-190.722z" fill="#3d4fc3"/><circle cx="256" cy="299.742" fill="#f4fbff" r="146.314"/><path d="m256 153.428c-5.486 0-10.899.312-16.229.9 73.168 8.076 130.085 70.093 130.085 145.413s-56.916 137.339-130.085 145.414c5.33.588 10.742.9 16.229.9 80.807 0 146.314-65.507 146.314-146.314s-65.507-146.313-146.314-146.313z" fill="#daf1f4"/><g><g><path d="m256 203.285c-4.204 0-7.611-3.408-7.611-7.611v-9.788c0-4.204 3.407-7.611 7.611-7.611s7.612 3.408 7.612 7.611v9.788c-.001 4.204-3.408 7.611-7.612 7.611z" fill="#2b4d66"/></g><g><path d="m329.587 233.767c-1.947 0-3.896-.743-5.383-2.229-2.972-2.972-2.972-7.792 0-10.764l6.922-6.922c2.973-2.972 7.792-2.972 10.765 0 2.972 2.972 2.972 7.792 0 10.764l-6.922 6.922c-1.486 1.485-3.434 2.229-5.382 2.229z" fill="#2b4d66"/></g><g><path d="m369.856 307.353h-9.788c-4.204 0-7.612-3.407-7.612-7.612s3.407-7.611 7.612-7.611h9.788c4.204 0 7.612 3.407 7.612 7.611s-3.408 7.612-7.612 7.612z" fill="#2b4d66"/></g><g><path d="m336.509 387.862c-1.947 0-3.896-.743-5.383-2.229l-6.922-6.922c-2.972-2.973-2.972-7.792 0-10.765 2.973-2.971 7.792-2.971 10.765 0l6.922 6.922c2.972 2.973 2.972 7.792 0 10.765-1.486 1.485-3.434 2.229-5.382 2.229z" fill="#2b4d66"/></g><g><path d="m256 421.21c-4.204 0-7.611-3.407-7.611-7.612v-9.788c0-4.204 3.407-7.612 7.611-7.612s7.612 3.407 7.612 7.612v9.788c-.001 4.204-3.408 7.612-7.612 7.612z" fill="#2b4d66"/></g><g><path d="m175.491 387.862c-1.947 0-3.896-.743-5.383-2.229-2.972-2.973-2.972-7.792 0-10.765l6.922-6.922c2.973-2.971 7.792-2.971 10.765 0 2.972 2.973 2.972 7.792 0 10.765l-6.922 6.922c-1.486 1.485-3.434 2.229-5.382 2.229z" fill="#2b4d66"/></g><g><path d="m151.932 307.353h-9.789c-4.204 0-7.611-3.407-7.611-7.612s3.407-7.611 7.611-7.611h9.789c4.204 0 7.611 3.407 7.611 7.611s-3.406 7.612-7.611 7.612z" fill="#2b4d66"/></g><g><path d="m182.413 233.767c-1.947 0-3.896-.743-5.383-2.229l-6.922-6.922c-2.972-2.972-2.972-7.792 0-10.764 2.973-2.972 7.792-2.972 10.765 0l6.922 6.922c2.972 2.972 2.972 7.792 0 10.764-1.486 1.485-3.435 2.229-5.382 2.229z" fill="#2b4d66"/></g></g><g><path d="m298.792 307.353h-42.792c-4.204 0-7.611-3.407-7.611-7.612v-64.257c0-4.204 3.407-7.611 7.611-7.611s7.612 3.408 7.612 7.611v56.646h35.18c4.204 0 7.612 3.407 7.612 7.611s-3.408 7.612-7.612 7.612z" fill="#365e7d"/></g></g></svg>