<svg height="512" viewBox="0 0 128 128" width="512" xmlns="http://www.w3.org/2000/svg"><g><path d="m57.788 57.933h-28.761a3.331 3.331 0 0 1 -2.088-5.925l21.4-17.224h-20.139a3.33 3.33 0 0 1 0-6.66h29.59a3.33 3.33 0 0 1 2.087 5.924l-21.4 17.224h19.311a3.331 3.331 0 0 1 0 6.661z" fill="#5f2e78"/><path d="m122.757 57.586a7.626 7.626 0 1 0 -11.239-9.175c-8.113-2.566-23.2-5.83-47.518-5.83-5.592 0-10.674.179-15.317.476l-10.207 8.215h19.312a3.33 3.33 0 1 1 0 6.66h-28.761a3.33 3.33 0 0 1 -2.088-5.924l9.7-7.81a117.1 117.1 0 0 0 -20.161 4.213 7.626 7.626 0 1 0 -11.235 9.175c-1.759 4.756-3.493 12.955-3.493 26.828s1.734 22.074 3.493 26.831a7.626 7.626 0 1 0 11.239 9.175c8.113 2.566 23.2 5.83 47.518 5.83s39.405-3.264 47.518-5.83a7.626 7.626 0 1 0 11.239-9.175c1.759-4.756 3.493-12.955 3.493-26.829s-1.734-22.073-3.493-26.83z" fill="#c1f7ff"/><path d="m103.786 31.559h-28.76a3.33 3.33 0 0 1 -2.088-5.925l21.399-17.224h-20.137a3.33 3.33 0 1 1 0-6.66h29.59a3.33 3.33 0 0 1 2.088 5.925l-21.404 17.225h19.312a3.331 3.331 0 0 1 0 6.661z" fill="#5f2e78"/><g fill="#00a3b4"><path d="m14.724 103.665a1.852 1.852 0 0 1 -.276-.021 1.751 1.751 0 0 1 -1.455-2 111.9 111.9 0 0 0 1.167-17.228 111.848 111.848 0 0 0 -1.168-17.228 1.75 1.75 0 1 1 3.457-.547 115.368 115.368 0 0 1 1.211 17.775 115.4 115.4 0 0 1 -1.21 17.772 1.751 1.751 0 0 1 -1.726 1.477z"/><path d="m113.276 103.665a1.751 1.751 0 0 1 -1.726-1.477 115.4 115.4 0 0 1 -1.21-17.772 115.368 115.368 0 0 1 1.211-17.775 1.75 1.75 0 0 1 3.457.547 111.848 111.848 0 0 0 -1.168 17.228 111.9 111.9 0 0 0 1.167 17.226 1.751 1.751 0 0 1 -1.455 2 1.852 1.852 0 0 1 -.276.023z"/></g></g></svg>