<svg id="Capa_1" enable-background="new 0 0 512 512" height="512" viewBox="0 0 512 512" width="512" xmlns="http://www.w3.org/2000/svg"><g><path d="m256 0 116.333 228.333-116.333 283.667h-236c-11.046 0-20-8.954-20-20v-472c0-11.046 8.954-20 20-20z" fill="#b3ccff"/><path d="m512 20v472c0 11.046-8.954 20-20 20h-236v-512h236c11.046 0 20 8.954 20 20z" fill="#99f"/><path d="m256 60 29 87.667-29 91.133c-5 0-10.01.23-15 .69-15.33 1.39-30.52 4.93-45.16 10.63-12.464 4.861-26.47-.879-31.93-12.97l-53.06-117.51c-5.944-13.204.518-28.123 13.28-33.42 42.02-17.4 86.38-26.22 131.87-26.22z" fill="#fff5f5"/><path d="m401.15 119.64-53.06 117.51c-5.506 12.193-19.593 17.782-31.93 12.97-14.64-5.7-29.83-9.24-45.16-10.63-4.99-.46-10-.69-15-.69v-178.8c45.49 0 89.85 8.82 131.87 26.22 12.763 5.298 19.224 20.217 13.28 33.42z" fill="#e6f0f2"/><path d="m256 132 7.5 47.333-7.5 59.467c-5 0-10.01.23-15 .69v-92.49c0-8.28 6.72-15 15-15z" fill="#e62e6b"/><path d="m271 147v92.49c-4.99-.46-10-.69-15-.69v-106.8c8.28 0 15 6.72 15 15z" fill="#b32453"/></g></svg>